<svg width="496" height="468" viewBox="0 0 496 468" fill="none" xmlns="http://www.w3.org/2000/svg">
<path fill-rule="evenodd" clip-rule="evenodd" d="M375.41 313.948C365.244 313.19 355.193 316.502 347.469 323.155C339.745 329.807 334.98 339.256 334.223 349.422C333.465 359.588 336.777 369.638 343.43 377.362L280.106 431.902C258.989 407.383 248.476 375.48 250.881 343.211C253.286 310.941 268.411 280.949 292.93 259.831C317.448 238.714 349.351 228.201 381.621 230.606C413.89 233.011 443.883 248.136 465 272.655L401.677 327.194C395.024 319.47 385.576 314.705 375.41 313.948Z" fill="#F5F2EB"/>
<path d="M275.869 368.78C272.178 376.889 266.925 384.192 260.412 390.272C253.898 396.351 246.251 401.088 237.907 404.212C229.563 407.336 220.685 408.786 211.78 408.479C202.876 408.172 194.119 406.114 186.01 402.423C177.9 398.731 170.597 393.479 164.518 386.966C158.439 380.452 153.702 372.805 150.578 364.461C147.454 356.117 146.004 347.239 146.311 338.334C146.618 329.43 148.676 320.673 152.367 312.563" fill="#FFC000"/>
<path d="M375.413 91.4944C374.81 89.3865 373.993 87.2972 373.983 85.1057C374.065 83.4546 374.378 81.823 374.912 80.2585C376.156 75.8756 377.466 71.3719 380.27 67.7876C379.908 68.2519 382.954 77.3427 383.13 78.6521C384.128 86.3575 383.2 94.1902 380.428 101.449C379.798 103.328 378.967 105.134 377.948 106.835C376.546 108.924 376.147 108.692 376.314 106.287C376.667 101.17 376.843 96.4809 375.413 91.4944Z" fill="#CC553A"/>
<path d="M436.124 89.6932C429.228 95.9277 420.138 99.1675 410.854 98.6999C401.569 98.2323 392.851 94.0957 386.617 87.1999C380.382 80.3042 377.142 71.2143 377.61 61.9298C378.077 52.6453 382.214 43.9269 389.11 37.6924" fill="#00EBD3"/>
<path d="M393.873 83.7319C394.644 77.9097 394.802 73.5175 394.449 71.7161C393.994 69.1532 393.196 68.5403 391.255 68.3174C388.868 68.0203 388.608 70.806 388.497 72.1711C388.144 78.1047 386.166 82.7291 382.981 87.6227C382.763 88.0121 382.442 88.3335 382.052 88.5513C381.741 88.6474 381.412 88.6715 381.091 88.6216C380.769 88.5717 380.463 88.4492 380.195 88.2635C376.778 86.4063 375.45 82.8684 375.33 78.4854C375.032 80.0733 374.15 80.8626 373.937 85.292C373.963 86.739 374.185 88.1759 374.596 89.5635C376.574 98.1993 375.859 107.866 370.64 115.025C373.302 117.237 375.829 119.606 378.208 122.12C379.387 123.299 381.124 136.318 380.427 137.321C383.213 133.356 388.859 122.705 391.273 118.517C393.511 114.626 396.845 110.336 397.058 105.851C397.126 101.427 396.413 97.0263 394.951 92.8507C392.898 87.1956 393.613 85.7191 393.873 83.7319Z" fill="#F2A57D"/>
<path d="M254.576 71.3725C254.465 71.5304 254.799 71.6139 254.957 71.5211C255.422 71.1717 255.811 70.7314 256.1 70.2269C256.389 69.7224 256.572 69.1643 256.638 68.5867C257.064 66.6158 257.14 64.5852 256.861 62.5881C256.864 62.1962 256.722 61.8169 256.464 61.5224C256.205 61.2279 255.848 61.0387 255.459 60.9909C254.538 60.8354 253.598 60.8198 252.673 60.9445" stroke="#003247" stroke-width="0.75" stroke-linecap="round" stroke-linejoin="round"/>
<path d="M241.149 41.9271C238.141 39.5035 234.649 38.6306 230.861 37.962C226.765 37.2377 223.933 36.662 220.535 37.4513C220.953 37.3491 232.3 41.8156 233.535 42.6514C234.918 43.58 236.256 44.6943 237.611 45.6971C239.838 47.3451 241.911 49.1912 243.805 51.2129C243.86 49.9379 243.659 48.6647 243.214 47.4686C242.769 46.2724 242.089 45.1775 241.214 44.2485C241.874 44.5271 244.121 45.5857 244.279 46.3657C243.775 44.5714 242.67 43.0044 241.149 41.9271Z" fill="#00464E"/>
<path d="M206.921 97.354L203.727 128.926C203.727 128.926 208.37 144.833 223.896 135.797C239.422 126.762 239.199 121.033 239.199 121.033L240.926 101.18L206.921 97.354Z" fill="#F2A57D"/>
<path d="M246.684 62.6152C248.056 64.8683 249.679 66.9586 251.522 68.846" stroke="#003247" stroke-width="0.75" stroke-linecap="round" stroke-linejoin="round"/>
<path d="M236.766 44.9816C240.922 48.042 244.668 51.6249 247.909 55.6417C249.32 57.3875 250.806 59.3561 250.741 61.6033C250.695 63.1076 249.924 64.5747 250.11 66.0791C250.686 68.1034 257.492 71.112 256.796 74.0835C256.588 74.8937 256.22 75.6544 255.715 76.3209C255.21 76.9874 254.576 77.5463 253.852 77.9649C253.852 77.9649 255.542 81.0293 255.171 83.0257C254.968 84.3379 255.012 85.6763 255.301 86.9722C255.895 90.1387 255.44 94.2245 256.443 99.0438C257.009 101.709 250.565 104.355 244.91 104.987C237.416 105.823 211.081 106.296 206.587 101.012C202.093 95.7288 183.205 76.8971 196.103 61.5197C209.001 46.1423 228.678 39.0201 236.766 44.9816Z" fill="#F2A57D"/>
<path d="M254.864 82.5151C254.45 83.6102 254.208 84.763 254.149 85.9323C254.65 88.8852 253.341 89.9345 250.323 89.8138C246.684 89.4733 243.313 87.7561 240.898 85.013C243.391 85.2737 245.911 84.9559 248.262 84.0844C250.52 83.8418 252.738 83.3146 254.864 82.5151Z" fill="#003247"/>
<path d="M252.988 77.5748L250.732 76.8134C250.504 76.6829 250.236 76.641 249.979 76.6959C249.722 76.7507 249.494 76.8983 249.339 77.1106C248.864 77.5676 248.334 77.9637 247.76 78.2899C246.785 78.8656 245.578 78.1041 244.891 77.3613" stroke="#CC553A" stroke-width="0.75" stroke-linecap="round" stroke-linejoin="round"/>
<path d="M230.414 64.2127C231.038 63.2195 231.753 62.2869 232.55 61.427C233.357 60.5021 234.296 59.7011 235.336 59.0498C235.633 58.8763 235.943 58.7272 236.265 58.6041C236.567 58.475 236.877 58.3633 237.193 58.2698C237.846 58.0402 238.535 57.9271 239.227 57.9355C239.983 57.9561 240.718 58.1842 241.353 58.5948C241.939 58.9959 242.384 59.5708 242.625 60.2384C242.661 60.3406 242.655 60.4528 242.608 60.5503C242.561 60.6477 242.477 60.7226 242.375 60.7584C242.317 60.7716 242.256 60.7716 242.198 60.7584C241.251 60.605 240.285 60.605 239.338 60.7584C238.897 60.8242 238.46 60.9141 238.029 61.0277C237.797 61.102 237.555 61.1577 237.314 61.2413L236.673 61.4827C235.718 61.9478 234.789 62.4623 233.887 63.0242C232.915 63.6365 231.91 64.1975 230.879 64.7049C230.807 64.7349 230.728 64.7415 230.652 64.724C230.576 64.7064 230.508 64.6655 230.456 64.6071C230.405 64.5486 230.374 64.4755 230.366 64.3981C230.358 64.3207 230.375 64.2429 230.414 64.1756V64.2127Z" fill="#00464E"/>
<path d="M210.255 92.0143C214.443 92.6086 215.975 89.3029 213.57 85.9692" stroke="#CC553A" stroke-width="0.75" stroke-linecap="round" stroke-linejoin="round"/>
<path d="M233.692 44.536C230.473 43.9563 227.162 44.1664 224.042 45.1481C220.922 46.1299 218.087 47.854 215.78 50.1725C215.416 50.4643 215.161 50.8698 215.056 51.3239C214.907 52.4846 216.411 53.0325 217.256 53.8404C217.653 54.267 217.944 54.781 218.105 55.3407C218.266 55.9005 218.294 56.4903 218.185 57.0626C217.939 58.1959 217.496 59.2772 216.876 60.2569C213.783 65.7541 210.45 69.0506 206.763 74.1857C206.763 74.1857 199.808 70.1742 197.923 77.0829C197.087 80.1751 198.722 86.3037 203.309 89.0988C207.896 91.8938 208.769 91.8845 208.769 91.8845L206.132 107.838C200.56 92.6646 197.217 94.401 190.624 84.7344C182.536 72.8671 182.416 57.0533 190.875 52.2339C194.116 43.5331 204.563 40.4223 208.992 39.048C215.854 36.8937 222.577 36.123 229.421 38.2959C233.416 39.6383 236.724 42.4961 238.632 46.2538C237.041 45.5325 235.388 44.9575 233.692 44.536Z" fill="#00464E"/>
<path d="M251.995 68.4564C251.995 68.4564 248.28 65.6706 247.603 62.8105" stroke="#CC553A" stroke-width="0.75" stroke-linecap="round" stroke-linejoin="round"/>
<path d="M249.683 76.7115C250.054 76.4608 250.612 76.7115 250.909 76.9529C250.96 76.981 251.003 77.021 251.036 77.0695C251.068 77.118 251.088 77.1736 251.094 77.2315C251.094 77.3987 250.927 77.5101 250.779 77.5844C250.007 77.9814 249.194 78.2928 248.355 78.513C248.244 78.513 247.779 78.7265 247.687 78.6708C247.594 78.6151 247.807 78.3922 247.891 78.318C248.146 78.0314 248.426 77.7673 248.727 77.5287C249.052 77.2501 249.339 76.9437 249.683 76.7115Z" fill="#CC553A"/>
<path d="M201.424 77.5565C202.873 77.4865 204.318 77.7644 205.638 78.367C206.958 78.9696 208.114 79.8793 209.011 81.0201" stroke="#CC553A" stroke-width="0.75" stroke-linecap="round" stroke-linejoin="round"/>
<path d="M254.121 82.6079C254.064 83.468 253.853 84.3109 253.499 85.0965C253.137 85.533 250.546 85.9601 248.011 86.2015C243.702 86.6008 241.418 85.3658 241.418 85.3658C241.418 85.3658 243.99 85.3101 244.575 85.208C247.352 84.7344 254.121 82.6079 254.121 82.6079Z" fill="white"/>
<path d="M255.078 82.8771C255.774 81.4656 244.241 86.5914 241.149 85.0778C242.134 86.0685 243.224 86.9496 244.399 87.7057" stroke="#003247" stroke-width="0.75" stroke-linecap="round" stroke-linejoin="round"/>
<path d="M240.471 105.024C240.471 105.024 230.424 105.33 224.472 103.018L218.51 100.715C218.51 100.715 229.226 110.976 234.575 112.072C239.923 113.168 240.146 109.685 240.146 109.685L240.471 105.024Z" fill="#CC553A"/>
<path d="M249.089 64.8535C248.261 65.1079 247.421 65.3187 246.572 65.485C246.034 68.2707 244.771 78.8195 235.633 73.4337C232.792 71.7715 230.378 67.695 230.378 67.695L205.129 73.2201L206.727 74.1487L229.013 69.9886C229.013 69.9886 236.256 76.4887 241.818 74.9287C241.818 74.9287 244.353 74.418 245.801 70.7593C246.498 69.0043 247.473 65.8842 247.473 65.8842L249.479 65.16L249.089 64.8535Z" fill="#003247" stroke="#003247" stroke-width="0.75" stroke-linecap="round" stroke-linejoin="round"/>
<path d="M244.928 346.865C289.228 346.865 325.139 310.953 325.139 266.654C325.139 222.354 289.228 186.442 244.928 186.442C200.629 186.442 164.717 222.354 164.717 266.654C164.717 310.953 200.629 346.865 244.928 346.865Z" fill="#00464E"/>
<path d="M287.792 318.06L286.91 335.518C286.91 335.518 262.386 351.304 233.052 346.011C187.644 337.765 176.816 307.744 176.816 307.744L287.792 318.06Z" fill="#003247"/>
<path d="M292.184 201.736C302.956 209.53 311.626 219.876 317.415 231.845C323.205 243.815 325.933 257.034 325.357 270.318C324.78 283.601 320.916 296.534 314.111 307.957C307.306 319.38 297.772 328.935 286.365 335.766C274.958 342.598 262.034 346.492 248.752 347.099C235.47 347.707 222.244 345.008 210.262 339.246C198.279 333.485 187.913 324.839 180.094 314.085C172.275 303.331 167.247 290.805 165.46 277.629" stroke="#00464E" stroke-width="0.75" stroke-linecap="round" stroke-linejoin="round"/>
<path d="M250.435 57.8797C250.765 58.0369 251.057 58.2635 251.291 58.544C251.525 58.8245 251.695 59.1522 251.791 59.5047C251.855 59.6891 251.873 59.8866 251.842 60.0795C251.811 60.2724 251.733 60.4546 251.614 60.6098V60.6655C251.461 60.8575 251.253 60.9985 251.017 61.0698C250.782 61.1411 250.53 61.1393 250.296 61.0648C250.034 60.987 249.758 60.968 249.488 61.009C248.89 61.092 248.297 61.2129 247.714 61.3712C247.714 61.3712 249.209 57.4526 250.435 57.8797Z" fill="#00464E"/>
<path d="M238.066 67.1744C238.066 67.1744 238.697 70.2109 239.366 70.1923C240.035 70.1737 240.545 68.7901 240.499 67.1094C240.452 65.4287 239.867 64.0636 239.19 64.0822C238.512 64.1008 238.066 67.1744 238.066 67.1744Z" fill="#003247"/>
<path d="M330.497 155.846L330.135 156.19L330.508 156.582L330.869 156.18L373.163 109.129C376.067 114.375 378.553 119.842 380.596 125.479C382.505 131.109 382.512 137.209 380.617 142.842L380.543 142.95L380.21 143.431C379.918 143.853 379.49 144.473 378.943 145.263C377.849 146.843 376.281 149.104 374.384 151.83C370.59 157.283 365.483 164.593 360.228 172.027C354.972 179.461 349.569 187.016 345.185 192.958C342.993 195.93 341.057 198.495 339.523 200.439C337.974 202.402 336.869 203.685 336.325 204.138C336.145 204.288 335.83 204.406 335.322 204.435C334.82 204.464 334.184 204.403 333.42 204.251C331.894 203.949 329.942 203.301 327.704 202.401C323.232 200.603 317.7 197.832 312.301 194.93C306.905 192.029 301.655 189.005 297.754 186.705C295.803 185.555 294.191 184.586 293.065 183.906C292.503 183.565 292.062 183.297 291.763 183.113C291.613 183.022 291.498 182.951 291.421 182.904L291.334 182.85L291.312 182.837L291.306 182.833L291.305 182.832C291.305 182.832 291.304 182.832 291.273 182.884L291.304 182.832L290.559 182.373L290.542 183.248L291.042 183.258C290.542 183.248 290.542 183.248 290.542 183.249L290.542 183.251L290.542 183.261L290.541 183.299L290.538 183.452L290.526 184.049C290.515 184.574 290.5 185.346 290.481 186.338C290.442 188.321 290.386 191.181 290.32 194.688C290.187 201.701 290.009 211.303 289.831 221.654C289.476 242.355 289.121 266.059 289.121 278.057L289.121 278.06C289.208 291.331 288.483 304.595 286.949 317.778L239.761 336.101L234.236 317.989L233.771 316.465L233.281 317.981L227.107 337.122C226.869 337.068 226.538 336.992 226.124 336.892C225.205 336.672 223.873 336.341 222.228 335.898C218.936 335.01 214.392 333.672 209.383 331.872C199.344 328.264 187.51 322.824 180.103 315.477L180.103 315.477C179.958 315.334 179.797 315.174 179.619 314.998C175.9 311.316 165.121 300.643 155.101 289.293C149.851 283.346 144.82 277.224 141.123 271.832C139.274 269.135 137.767 266.631 136.733 264.431C135.694 262.219 135.159 260.365 135.196 258.95C136.243 218.565 145.426 178.521 147.736 169.03C149.014 163.819 152.598 158.422 157.317 153.236C162.028 148.058 167.831 143.132 173.484 138.862C179.134 134.592 184.624 130.987 188.702 128.448C190.74 127.178 192.425 126.176 193.599 125.492C194.186 125.15 194.646 124.887 194.959 124.71C195.115 124.621 195.234 124.554 195.314 124.509L195.405 124.459L195.428 124.446L195.433 124.443L195.434 124.443C195.435 124.442 195.435 124.442 195.193 124.005L195.435 124.442L195.597 124.353L195.661 124.18L196.831 121.05L196.845 121.014L196.853 120.977C197.329 118.681 198.672 116.656 200.603 115.325L200.614 115.318L200.625 115.309L204.815 112.072C206.943 116.861 210.061 121.15 213.966 124.652C218.683 129.039 223.725 130.094 227.957 129.413C232.158 128.736 235.57 126.342 237.023 123.818C238.431 121.37 239.205 118.317 239.629 115.905C239.841 114.693 239.968 113.632 240.041 112.873C240.057 112.703 240.071 112.548 240.083 112.41C240.346 112.551 240.67 112.731 241.017 112.944C241.907 113.49 242.896 114.215 243.468 114.988C244.051 115.778 244.223 116.391 244.264 116.777C244.284 116.972 244.272 117.116 244.259 117.203C244.252 117.247 244.244 117.277 244.24 117.292C244.239 117.295 244.238 117.297 244.238 117.299C244.238 117.3 244.237 117.3 244.237 117.301C244.237 117.302 244.236 117.303 244.236 117.303C244.236 117.303 244.237 117.303 244.237 117.301L243.899 118.153L244.806 117.966L244.705 117.477C244.806 117.966 244.806 117.966 244.806 117.966L244.807 117.966L244.812 117.965L244.828 117.962L244.894 117.948L245.153 117.896C245.38 117.85 245.715 117.783 246.144 117.698C247.002 117.528 248.237 117.288 249.745 117.006C252.76 116.441 256.863 115.709 261.216 115.037C265.571 114.364 270.17 113.753 274.177 113.431C278.208 113.107 281.571 113.081 283.496 113.543C284.398 113.759 285.814 114.553 287.649 115.857C289.464 117.147 291.628 118.89 294.009 120.936C298.77 125.028 304.37 130.308 309.725 135.533C315.079 140.758 320.181 145.922 323.946 149.781C325.828 151.71 327.376 153.313 328.453 154.433C328.991 154.993 329.412 155.433 329.698 155.732C329.841 155.882 329.95 155.996 330.024 156.074L330.107 156.161L330.128 156.183L330.133 156.189L330.135 156.19C330.135 156.19 330.135 156.19 330.497 155.846ZM171.858 249.005L171.825 249.185L171.916 249.343L179.178 261.991L180.111 261.717L179.611 261.742C180.111 261.717 180.111 261.717 180.111 261.717L180.111 261.716L180.111 261.714L180.11 261.704L180.108 261.664L180.101 261.51L180.071 260.914C180.046 260.397 180.009 259.645 179.964 258.713C179.873 256.848 179.749 254.257 179.615 251.352C179.347 245.543 179.039 238.484 178.876 233.478C178.713 228.46 178.469 225.409 178.264 223.607C178.161 222.706 178.068 222.116 178 221.746C177.965 221.561 177.937 221.431 177.917 221.344C177.906 221.301 177.898 221.268 177.892 221.245L177.884 221.217L177.881 221.208L177.88 221.205L177.88 221.203L177.88 221.203C177.88 221.202 177.88 221.202 177.401 221.348L177.88 221.202L176.91 221.259L171.858 249.005Z" fill="#F5F2EB" stroke="#F5F2EB"/>
<mask id="mask0" mask-type="alpha" maskUnits="userSpaceOnUse" x="134" y="108" width="249" height="230">
<path d="M330.497 155.846L330.135 156.19L330.508 156.582L330.869 156.18L373.163 109.129C376.067 114.375 378.553 119.842 380.596 125.479C382.505 131.109 382.512 137.209 380.617 142.842L380.543 142.95L380.21 143.431C379.918 143.853 379.49 144.473 378.943 145.263C377.849 146.843 376.281 149.104 374.384 151.83C370.59 157.283 365.483 164.593 360.228 172.027C354.972 179.461 349.569 187.016 345.185 192.958C342.993 195.93 341.057 198.495 339.523 200.439C337.974 202.402 336.869 203.685 336.325 204.138C336.145 204.288 335.83 204.406 335.322 204.435C334.82 204.464 334.184 204.403 333.42 204.251C331.894 203.949 329.942 203.301 327.704 202.401C323.232 200.603 317.7 197.832 312.301 194.93C306.905 192.029 301.655 189.005 297.754 186.705C295.803 185.555 294.191 184.586 293.065 183.906C292.503 183.565 292.062 183.297 291.763 183.113C291.613 183.022 291.498 182.951 291.421 182.904L291.334 182.85L291.312 182.837L291.306 182.833L291.305 182.832C291.305 182.832 291.304 182.832 291.273 182.884L291.304 182.832L290.559 182.373L290.542 183.248L291.042 183.258C290.542 183.248 290.542 183.248 290.542 183.249L290.542 183.251L290.542 183.261L290.541 183.299L290.538 183.452L290.526 184.049C290.515 184.574 290.5 185.346 290.481 186.338C290.442 188.321 290.386 191.181 290.32 194.688C290.187 201.701 290.009 211.303 289.831 221.654C289.476 242.355 289.121 266.059 289.121 278.057L289.121 278.06C289.208 291.331 288.483 304.595 286.949 317.778L239.761 336.101L234.236 317.989L233.771 316.465L233.281 317.981L227.107 337.122C226.869 337.068 226.538 336.992 226.124 336.892C225.205 336.672 223.873 336.341 222.228 335.898C218.936 335.01 214.392 333.672 209.383 331.872C199.344 328.264 187.51 322.824 180.103 315.477L180.103 315.477C179.958 315.334 179.797 315.174 179.619 314.998C175.9 311.316 165.121 300.643 155.101 289.293C149.851 283.346 144.82 277.224 141.123 271.832C139.274 269.135 137.767 266.631 136.733 264.431C135.694 262.219 135.159 260.365 135.196 258.95C136.243 218.565 145.426 178.521 147.736 169.03C149.014 163.819 152.598 158.422 157.317 153.236C162.028 148.058 167.831 143.132 173.484 138.862C179.134 134.592 184.624 130.987 188.702 128.448C190.74 127.178 192.425 126.176 193.599 125.492C194.186 125.15 194.646 124.887 194.959 124.71C195.115 124.621 195.234 124.554 195.314 124.509L195.405 124.459L195.428 124.446L195.433 124.443L195.434 124.443C195.435 124.442 195.435 124.442 195.193 124.005L195.435 124.442L195.597 124.353L195.661 124.18L196.831 121.05L196.845 121.014L196.853 120.977C197.329 118.681 198.672 116.656 200.603 115.325L200.614 115.318L200.625 115.309L204.815 112.072C206.943 116.861 210.061 121.15 213.966 124.652C218.683 129.039 223.725 130.094 227.957 129.413C232.158 128.736 235.57 126.342 237.023 123.818C238.431 121.37 239.205 118.317 239.629 115.905C239.841 114.693 239.968 113.632 240.041 112.873C240.057 112.703 240.071 112.548 240.083 112.41C240.346 112.551 240.67 112.731 241.017 112.944C241.907 113.49 242.896 114.215 243.468 114.988C244.051 115.778 244.223 116.391 244.264 116.777C244.284 116.972 244.272 117.116 244.259 117.203C244.252 117.247 244.244 117.277 244.24 117.292C244.239 117.295 244.238 117.297 244.238 117.299C244.238 117.3 244.237 117.3 244.237 117.301C244.237 117.302 244.236 117.303 244.236 117.303C244.236 117.303 244.237 117.303 244.237 117.301L243.899 118.153L244.806 117.966L244.705 117.477C244.806 117.966 244.806 117.966 244.806 117.966L244.807 117.966L244.812 117.965L244.828 117.962L244.894 117.948L245.153 117.896C245.38 117.85 245.715 117.783 246.144 117.698C247.002 117.528 248.237 117.288 249.745 117.006C252.76 116.441 256.863 115.709 261.216 115.037C265.571 114.364 270.17 113.753 274.177 113.431C278.208 113.107 281.571 113.081 283.496 113.543C284.398 113.759 285.814 114.553 287.649 115.857C289.464 117.147 291.628 118.89 294.009 120.936C298.77 125.028 304.37 130.308 309.725 135.533C315.079 140.758 320.181 145.922 323.946 149.781C325.828 151.71 327.376 153.313 328.453 154.433C328.991 154.993 329.412 155.433 329.698 155.732C329.841 155.882 329.95 155.996 330.024 156.074L330.107 156.161L330.128 156.183L330.133 156.189L330.135 156.19C330.135 156.19 330.135 156.19 330.497 155.846ZM171.858 249.005L171.825 249.185L171.916 249.343L179.178 261.991L180.111 261.717L179.611 261.742C180.111 261.717 180.111 261.717 180.111 261.717L180.111 261.716L180.111 261.714L180.11 261.704L180.108 261.664L180.101 261.51L180.071 260.914C180.046 260.397 180.009 259.645 179.964 258.713C179.873 256.848 179.749 254.257 179.615 251.352C179.347 245.543 179.039 238.484 178.876 233.478C178.713 228.46 178.469 225.409 178.264 223.607C178.161 222.706 178.068 222.116 178 221.746C177.965 221.561 177.937 221.431 177.917 221.344C177.906 221.301 177.898 221.268 177.892 221.245L177.884 221.217L177.881 221.208L177.88 221.205L177.88 221.203L177.88 221.203C177.88 221.202 177.88 221.202 177.401 221.348L177.88 221.202L176.91 221.259L171.858 249.005Z" fill="#F5F2EB" stroke="#F5F2EB"/>
</mask>
<g mask="url(#mask0)">
<path d="M141.075 192.023C142.111 191.416 143.191 190.888 144.307 190.445L144.957 190.194C146.721 189.786 146.702 189.674 144.957 189.878L143.61 189.953C144.488 190.044 145.359 190.186 146.22 190.38C147.087 190.578 147.942 190.822 148.782 191.113C152.698 192.519 156.338 194.599 159.535 197.261C165.33 201.904 168.459 207.874 173.195 213.325C174.774 215.182 176.204 216.325 178.618 216.473C181.032 216.622 184.858 216.64 187.17 215.888C189.482 215.136 189.585 212.499 190.578 210.317C191.321 208.692 191.98 208.376 193.308 207.206C195.88 204.949 196.205 209.509 190.82 206.658C191.572 207.048 192.946 206.946 193.791 207.187C201.22 209.258 206.253 216.408 211.053 221.924C215.316 226.827 221.416 233.429 228.381 233.996C232.606 234.311 240.007 234.553 242.625 230.615C244.297 228.108 244.585 224.886 245.16 222.007C245.876 218.476 247.129 215.075 248.875 211.923C250.875 208.178 253.504 204.804 256.647 201.95C258.185 200.56 259.873 199.346 261.68 198.329C262.776 197.725 266.843 196.88 267.316 196.119C266.388 197.595 262.098 195.784 266.156 196.657C267.346 196.909 268.509 197.276 269.629 197.753C272.036 198.856 274.273 200.301 276.268 202.043C279.982 205.107 282.88 209.657 287.067 211.997C287.81 212.406 296.353 211.254 296.353 211.384C296.353 205.469 300.021 192.497 307.181 191.661L298.081 192.246C299.064 192.279 300.024 192.564 300.866 193.073C301.618 193.5 310.152 192.283 310.152 192.46C309.976 186.34 309.994 181.317 312.279 175.532C314.48 170.192 317.425 165.19 321.026 160.674C327.953 151.741 336.459 144.22 344.779 136.633C344.222 137.135 340.944 136.838 340.136 136.893C339.328 136.949 336.218 136.596 335.493 137.246C327.136 144.833 318.667 152.354 311.749 161.287C308.292 165.62 305.435 170.399 303.253 175.495C300.783 181.512 300.681 186.638 300.866 193.054L310.152 192.441C307.571 191.002 304.339 191.763 301.535 191.958C298.731 192.153 296.493 192.126 294.338 194.085C289.9 198.124 287.151 206.064 287.142 211.979L296.428 211.366C292.407 209.128 289.677 204.866 286.213 201.866C282.564 198.765 278.432 196.174 273.557 195.701C267.734 195.125 260.148 195.552 254.725 197.846C247.296 201.021 241.595 208.06 238.363 215.294C235.958 220.707 236.506 232.25 229.588 233.949L238.688 233.336C231.872 233.531 225.484 226.994 221.314 222.295C216.588 216.956 212.084 210.4 205.38 207.392C200.384 205.154 194.097 206.045 188.805 206.639C186.112 206.946 183.326 207.568 181.859 210.066C180.726 211.979 180.726 216.083 178.144 216.482L187.43 215.87C182.917 215.34 180.494 209.564 178.144 206.277C174.342 200.914 169.45 196.414 163.788 193.073C159.061 190.273 153.595 188.978 148.114 189.358C142.422 189.693 137.092 189.767 132.003 192.636C134.408 191.281 138.809 193.407 141.289 192.023H141.075Z" fill="white"/>
<path d="M160.678 139.577C165.724 139.471 170.735 140.449 175.371 142.445C180.006 144.441 184.16 147.409 187.552 151.147C193.374 157.749 197.933 163.878 207.368 164.695C215.251 165.382 220.247 162.299 223.989 155.669C226.645 151.026 229.616 145.715 227.769 140.088C227.035 137.85 225.586 136.633 223.172 137.107C219.941 137.757 218.789 140.821 217.359 143.421C216.18 145.529 214.434 147.767 214.638 150.302C214.88 153.199 217.062 156.068 218.882 158.186C224.156 164.324 232.365 166.079 239.162 160.971C244.845 156.719 248.281 148.9 251.457 142.734C252.645 140.413 253.704 138.035 254.753 135.658C255.171 134.73 255.58 133.801 255.998 132.872C256.617 131.517 257.236 130.17 257.855 128.833L256.415 131.322C256.805 131.415 261.467 124.237 262.284 123.187C264.086 120.878 265.967 118.64 267.93 116.474C275.516 108.172 284.477 101.338 295.11 97.4654C295.871 97.1869 297.022 94.1504 297.422 93.4354C297.821 92.7204 298.88 89.6467 299.65 89.3589C278.469 97.0847 263.631 116.418 253.797 135.955C252.506 138.518 251.364 141.155 250.203 143.783C249.832 144.628 247.668 149.16 247.724 149.206L249.2 146.662C248.449 147.86 247.611 149.003 246.693 150.079C243.044 154.221 237.853 156.83 232.263 155.725C226.673 154.62 216.607 146.021 219.671 139.4L215.13 147.498C216.542 145.548 219.773 144.09 221.9 145.854C223.757 147.442 223.757 150.868 223.608 153.097C223.516 154.369 222.931 155.743 222.931 156.988C222.386 158.535 222.785 157.87 224.128 154.991C225.93 152.212 226.14 151.593 224.76 153.134C224.147 153.468 223.627 154.063 223.023 154.453C219.588 156.589 215.251 156.941 211.314 156.514C201.907 155.493 197.534 149.086 191.665 142.585C185.007 135.157 175.081 131.387 165.219 131.489C163.622 131.489 162.155 139.568 160.678 139.586V139.577Z" fill="white"/>
<path d="M329.671 113.92C312.279 114.124 293.865 116.845 282.378 131.247C277.615 137.209 273.798 144.405 275.126 152.206C276.119 158.009 276.677 166.478 282.555 169.561L280.837 160.433C267.92 183.295 233.795 181.586 212.474 173.489C203.077 169.923 193.596 166.255 183.688 164.268C179.612 163.451 174.95 162.606 170.836 163.674C169.357 163.972 168.011 164.733 166.992 165.846C165.85 167.239 166.546 169.468 165.757 170.545C165.404 171.037 166.686 171.474 165.348 170.406C164.643 169.858 164.132 167.861 163.742 167.091C162.813 165.326 161.885 163.59 160.891 161.909C159.076 158.777 156.79 155.942 154.113 153.506C147.612 147.888 139.589 147.795 131.724 150.228C131.325 150.358 133.712 159.272 133.442 159.356C140.871 157.043 148.671 156.913 155.05 161.974C160.993 166.682 164.494 173.934 167.596 180.667V180.5C165.534 164.658 196.159 176.098 202.585 178.327C208.277 180.305 213.849 182.886 219.661 184.502C230.24 187.53 241.301 188.501 252.246 187.362C264.577 185.932 276.249 180.713 282.545 169.561C282.907 168.92 281.338 160.702 280.827 160.433C277.624 158.761 277.419 156.087 275.544 153.441C276.163 158.758 276.472 159.968 276.472 157.071C276.528 156.217 276.64 155.367 276.807 154.527C277.181 152.759 277.748 151.037 278.497 149.392C281.31 143.123 285.598 137.627 290.995 133.374C302.213 124.617 317.655 123.206 331.37 123.048C330.897 123.048 330.256 113.911 329.652 113.92H329.671Z" fill="white"/>
<path d="M137.983 229.705C138.819 225.462 140.37 222.23 142.218 218.442C143.35 217.055 142.639 217.696 140.082 220.364C137.315 222.759 136.621 223.459 138.002 222.462C138.605 222.314 139.218 221.794 139.859 221.589C140.83 221.296 141.847 221.186 142.858 221.264C149.061 221.664 154.568 227.235 158.505 231.479C164.015 237.587 168.787 244.322 172.722 251.546C175.935 257.312 179.166 263.617 180.299 270.173C180.02 268.548 186.678 265.595 187.013 263.757C187.471 261.103 188.443 258.564 189.873 256.281C190.569 255.176 193.513 252.038 190.095 255.353C186.678 258.668 190.151 255.696 191.423 255.065C196.586 252.511 200.644 254.211 205.556 256.411C211.49 259.076 215.492 261.547 218.984 267.062C222.266 272.116 226.228 276.693 230.758 280.666C235.225 284.797 240.53 287.917 246.312 289.813C250.649 291.15 256.926 292.459 260.974 289.636C263.203 288.086 267.177 284.873 268.403 282.375C270.335 278.298 263.63 273.358 261.086 271.018C253.304 263.849 242.932 252.595 252.116 242.018L245.523 248.333C253.341 241.248 260.38 256.922 268.737 255.585C272.229 255.019 274.903 251.509 277.29 249.187C280.075 246.401 281.645 243.123 284.087 240.105L283.158 241.034L283.957 240.254L278.209 245.705C284.384 240.96 293.345 240.235 300.755 241.898C302.482 242.278 305.853 235.119 307.469 235.481C300.17 233.847 290.866 234.441 284.858 239.344C282.577 241.279 280.407 243.341 278.358 245.519C275.915 248.008 274.717 251.314 272.34 253.83L278.943 247.534C271.207 253.589 265.199 242.371 258.579 240.328C255.468 239.4 253.323 240.885 251.15 242.901C248.977 244.916 246.256 247.07 244.473 249.605C239.505 256.644 242.672 265.326 247.891 271.111C250.741 274.268 265.738 284.613 261.169 289.478L267.772 283.183C260.12 288.55 247.018 281.613 240.787 276.887C236.315 273.415 232.283 269.411 228.78 264.964C225.651 261.073 223.757 256.216 219.346 253.542C215.334 251.109 209.846 247.971 205.157 247.274C201.136 246.661 197.208 248.797 194.228 251.267C188.192 256.272 181.757 262.187 180.299 270.201L187.013 263.784C185.713 256.207 181.729 248.927 177.857 242.427C173.214 234.59 167.726 226.817 160.826 220.791C156.518 217.021 149.888 212.48 144.288 216.38C140.91 218.628 138.018 221.531 135.784 224.917C133.549 228.304 132.017 232.104 131.279 236.094C131.771 233.652 137.491 232.203 138.002 229.687L137.983 229.705Z" fill="white"/>
</g>
<path d="M165.636 171.919C165.98 185.848 171.681 206.147 176.928 219.017C178.441 222.732 180.837 300.612 184.579 318.218" stroke="#003247" stroke-width="0.75" stroke-linecap="round" stroke-linejoin="round"/>
<path d="M95.1953 130.625C95.1953 147.386 81.6082 160.973 64.8476 160.973C48.0871 160.973 34.5 147.386 34.5 130.625C34.5 113.864 48.0871 100.277 64.8476 100.277C81.6082 100.277 95.1953 113.864 95.1953 130.625Z" fill="#F5F2EB" stroke="#F5F2EB"/>
</svg>
